# xmcd
#
# Track frame offsets: 
#        151
#        11719
#        24450
#        37090
#        47985
#        59392
#        73075
#        86158
#        100583
#        112869
#        127064
#        140971
#        155329
#        169391
#        184957
#        198436
#        212948
#        226887
#        239875
#        254468
#
# Disc length: 3579 seconds
#
# Revision: 2
# Processed by: cddbd v1.5.2PL0 Copyright (c) Steve Scherf et al.
# Submitted via: ExactAudioCopy v0.95b4
#
DISCID=340df914
DTITLE=Various Artist - History of Jazz
DYEAR=1927
DGENRE=Jazz
TTITLE0=DIXIE JASS BAND ONE-STEP (LaRocca) Original Dixieland Jass Ban
TTITLE0=d - 1917
TTITLE1=OLE MISS RAG (Handy) Handy's Orchestra Of Memphis - 1917
TTITLE2=CAROLINA SHOUT (Johnson) James P. Johnson - 1921
TTITLE3=TIGER RAG (Original Dixieland Jazz Band) New Orleans Rhythm Ki
TTITLE3=ngs - 1922
TTITLE4=DIPPER MOUTH BLUES (Oliver-Armstrong) King Oliver's Creole Jaz
TTITLE4=z Band - 1923
TTITLE5=WILD CAT BLUES (Williams-Wiley) Clarence Williams' Blue Five -
TTITLE5=1923
TTITLE6=COPENHAGEN (Davis-Melrose) Fletcher Henderson and His Orchestr
TTITLE6=a - 1924
TTITLE7=THE ST. LOUIS BLUES (Handy) Bessie Smith acc by Louis Armstron
TTITLE7=g - 1925
TTITLE8=DAVENPORT BLUES (Beiderbecke) Bix and His Rhythm Jugglers - 19
TTITLE8=25
TTITLE9=CORNET CHOP SUEY (Armstrong) Louis Armstrong and His Hot Five 
TTITLE9=1926
TTITLE10=HERE COMES THE HOT TAMALE MAN (Rose-Harrison) Cookie's Ginger
TTITLE10=snaps - 1926
TTITLE11=PERDIDO STREET BLUES (Armstrong) The New Orleans Wanderers - 
TTITLE11=1926
TTITLE12=SNAG IT (Oliver) King Oliver and His Dixie Syncopators - 1926
TTITLE13=DOCTOR JAZZ (Morton) Lelly-Roll Morton's Red Hot Peppers - 19
TTITLE13=26
TTITLE14=POTATO HEAD BLUES (Armstrong) Louis Armstrong and His Hot Sev
TTITLE14=en - 1927
TTITLE15=DEAR HEART (Dent) Bennie Moten's Kansas City Orchestra - 1927
TTITLE16=RIVERBOAT SHUFFLE (Carmichael) Red Nichols and His Five Penni
TTITLE16=es - 1927
TTITLE17=AT THE JAZZ BAND BALL (LaRocca-Shields) Bix Beiderbecke and H
TTITLE17=is Gang - 1927
TTITLE18=CREOLE LOVE CALL (Ellington-Miley) Duke Ellington and His Orc
TTITLE18=hestra - 1927
TTITLE19=NOBODY'S SWEETHEART (Kahn-Erdman-Meyers-Schoebel) McKenzie an
TTITLE19=d Condon's Chicagoans - 1927
EXTD=YEAR: 1927
EXTT0=
EXTT1=
EXTT2=
EXTT3=
EXTT4=
EXTT5=
EXTT6=
EXTT7=
EXTT8=
EXTT9=
EXTT10=
EXTT11=
EXTT12=
EXTT13=
EXTT14=
EXTT15=
EXTT16=
EXTT17=
EXTT18=
EXTT19=
PLAYORDER=
